<svg width="28" height="23" viewBox="0 0 28 23" fill="none" xmlns="http://www.w3.org/2000/svg">
<path d="M15 11.4997L15 9.99973L15 9.99973L15 11.4997ZM27.5608 12.5604C28.1466 11.9746 28.1466 11.0249 27.5608 10.4391L18.0149 0.893129C17.4291 0.307343 16.4794 0.307343 15.8936 0.893129C15.3078 1.47892 15.3078 2.42866 15.8936 3.01445L24.3789 11.4997L15.8936 19.985C15.3078 20.5708 15.3078 21.5205 15.8936 22.1063C16.4794 22.6921 17.4291 22.6921 18.0149 22.1063L27.5608 12.5604ZM0.00290811 12.9998L15 12.9997L15 9.99973L0.00288715 9.99984L0.00290811 12.9998ZM15 12.9997L26.5002 12.9997L26.5002 9.99973L15 9.99973L15 12.9997Z" fill="#9C73FF"/>
</svg>
